<svg xmlns="http://www.w3.org/2000/svg" version="1.1" xmlns:xlink="http://www.w3.org/1999/xlink" xmlns:svgjs="http://svgjs.dev/svgjs" width="1000" height="199" viewBox="0 0 1000 199"><g transform="matrix(1,0,0,1,-0.6060508728034506,-0.30320187190724823)"><svg viewBox="0 0 396 79" data-background-color="#ffffff" preserveAspectRatio="xMidYMid meet" height="199" width="1000" xmlns="http://www.w3.org/2000/svg" xmlns:xlink="http://www.w3.org/1999/xlink"><defs></defs><g id="tight-bounds" transform="matrix(1,0,0,1,0.23999614563015825,0.12036657226468606)"><svg viewBox="0 0 395.5199999999999 78.75900463318848" height="78.75900463318848" width="395.5199999999999"><g><svg viewBox="0 0 515.7677020349058 102.70365805576489" height="78.75900463318848" width="395.5199999999999"><g transform="matrix(1,0,0,1,120.24770203490581,14.194210339110782)"><svg viewBox="0 0 395.52 74.31523737754333" height="74.31523737754333" width="395.52"><g><svg viewBox="0 0 395.52 74.31523737754333" height="74.31523737754333" width="395.52"><g><svg viewBox="0 0 395.52 74.31523737754333" height="74.31523737754333" width="395.52"><g transform="matrix(1,0,0,1,0,0)"><svg width="395.52" viewBox="1.809999942779541 -36.040000915527344 194.3699951171875 36.53000259399414" height="74.31523737754333" data-palette-color="#ea9937"><path d="M22.19-9.16L22.19-9.16Q22.19-11.5 20.54-12.77 18.9-14.04 14.6-15.33 10.3-16.63 7.76-18.21L7.76-18.21Q2.91-21.26 2.91-26.17L2.91-26.17Q2.91-30.47 6.41-33.25 9.91-36.04 15.5-36.04L15.5-36.04Q19.21-36.04 22.12-34.67 25.02-33.3 26.68-30.77 28.34-28.25 28.34-25.17L28.34-25.17 22.19-25.17Q22.19-27.95 20.45-29.53 18.7-31.1 15.45-31.1L15.45-31.1Q12.43-31.1 10.75-29.81 9.08-28.52 9.08-26.2L9.08-26.2Q9.08-24.24 10.89-22.94 12.7-21.63 16.85-20.4 21-19.17 23.51-17.59 26.03-16.02 27.2-13.98 28.37-11.94 28.37-9.2L28.37-9.2Q28.37-4.76 24.96-2.14 21.56 0.49 15.72 0.49L15.72 0.49Q11.87 0.49 8.63-0.94 5.4-2.37 3.6-4.88 1.81-7.4 1.81-10.74L1.81-10.74 7.98-10.74Q7.98-7.71 9.99-6.05 11.99-4.39 15.72-4.39L15.72-4.39Q18.95-4.39 20.57-5.7 22.19-7.01 22.19-9.16ZM54.56-20.75L54.56-15.87 39.96-15.87 39.96-4.93 57.03-4.93 57.03 0 33.79 0 33.79-35.55 56.86-35.55 56.86-30.57 39.96-30.57 39.96-20.75 54.56-20.75ZM65.64-35.55L74.58-7.74 83.61-35.55 90.4-35.55 77.61 0 71.63 0 58.88-35.55 65.64-35.55ZM115.18-20.75L115.18-15.87 100.58-15.87 100.58-4.93 117.64-4.93 117.64 0 94.4 0 94.4-35.55 117.47-35.55 117.47-30.57 100.58-30.57 100.58-20.75 115.18-20.75ZM142.86 0L135.73-13.7 128.85-13.7 128.85 0 122.67 0 122.67-35.55 135.17-35.55Q141.32-35.55 144.67-32.79 148.01-30.03 148.01-24.8L148.01-24.8Q148.01-21.24 146.29-18.84 144.57-16.43 141.49-15.14L141.49-15.14 149.48-0.32 149.48 0 142.86 0ZM128.85-30.57L128.85-18.65 135.2-18.65Q138.32-18.65 140.08-20.23 141.84-21.8 141.84-24.54L141.84-24.54Q141.84-27.39 140.21-28.96 138.59-30.52 135.37-30.57L135.37-30.57 128.85-30.57ZM160.39-35.55L160.39 0 154.24 0 154.24-35.55 160.39-35.55ZM196.18-35.55L196.18 0 190 0 174.15-25.22 174.15 0 167.98 0 167.98-35.55 174.15-35.55 190.05-10.23 190.05-35.55 196.18-35.55Z" opacity="1" transform="matrix(1,0,0,1,0,0)" fill="#ea9937" class="undefined-text-0" data-fill-palette-color="primary" id="text-0"></path></svg></g></svg></g></svg></g></svg></g><g><svg viewBox="0 0 102.70365805576489 102.70365805576489" height="102.70365805576489" width="102.70365805576489"><g><svg></svg></g><g id="icon-0"><svg viewBox="0 0 102.70365805576489 102.70365805576489" height="102.70365805576489" width="102.70365805576489"><g><path d="M30.811 102.704c-17.017 0-30.811-13.795-30.811-30.811v-41.082c0-17.017 13.795-30.811 30.811-30.811h41.082c17.017 0 30.811 13.795 30.811 30.811v41.082c0 17.017-13.795 30.811-30.811 30.811z" fill="#ea9937" data-fill-palette-color="accent"></path></g><g transform="matrix(1,0,0,1,26.47952392106654,20.54073161115298)"><svg viewBox="0 0 49.74461021363181 61.62219483345893" height="61.62219483345893" width="49.74461021363181"><g><svg xmlns="http://www.w3.org/2000/svg" xmlns:xlink="http://www.w3.org/1999/xlink" version="1.1" x="0" y="0" viewBox="9.613998413085938 0.00047719478607177734 80.77400970458984 100.0605239868164" enable-background="new 0 0 100 100" xml:space="preserve" width="49.74461021363181" height="61.62219483345893" class="icon-x-0" data-fill-palette-color="quaternary" id="x-0"><path fill="#ffffff" d="M90.386 16.252c0-0.012 0.001-0.024 0-0.036 0-0.019-0.003-0.039-0.003-0.058-0.002-0.033-0.003-0.065-0.006-0.097-0.003-0.031-0.006-0.062-0.009-0.092-0.004-0.032-0.008-0.064-0.012-0.096-0.004-0.03-0.01-0.061-0.015-0.091-0.006-0.032-0.012-0.063-0.019-0.095-0.006-0.03-0.014-0.06-0.021-0.089-0.008-0.031-0.016-0.062-0.025-0.092-0.008-0.029-0.017-0.058-0.027-0.087-0.01-0.03-0.02-0.06-0.031-0.091-0.01-0.028-0.021-0.057-0.032-0.085-0.012-0.03-0.024-0.059-0.037-0.089-0.012-0.027-0.024-0.054-0.037-0.082-0.014-0.029-0.029-0.058-0.044-0.087-0.013-0.026-0.027-0.052-0.042-0.078-0.016-0.029-0.033-0.057-0.05-0.084-0.015-0.025-0.03-0.05-0.046-0.074-0.018-0.028-0.037-0.055-0.056-0.082-0.017-0.024-0.033-0.047-0.05-0.071-0.02-0.027-0.041-0.053-0.061-0.079-0.018-0.023-0.036-0.045-0.055-0.067-0.022-0.025-0.044-0.05-0.067-0.075-0.019-0.021-0.038-0.043-0.058-0.063-0.023-0.024-0.048-0.047-0.072-0.071-0.021-0.02-0.042-0.04-0.063-0.06-0.025-0.022-0.051-0.044-0.076-0.065-0.023-0.019-0.045-0.038-0.068-0.056-0.026-0.021-0.053-0.04-0.08-0.06-0.024-0.018-0.048-0.035-0.072-0.052-0.028-0.019-0.057-0.037-0.085-0.055-0.025-0.016-0.05-0.032-0.076-0.047-0.005-0.003-0.01-0.006-0.015-0.009-0.026-0.015-0.053-0.029-0.08-0.043-0.02-0.011-0.04-0.023-0.061-0.034L62.276 0.306c-0.849-0.43-1.858-0.405-2.685 0.068L48.595 6.658c-0.013 0.007-0.025 0.016-0.037 0.023-0.013 0.008-0.027 0.015-0.04 0.023-0.015 0.01-0.03 0.02-0.045 0.03-0.025 0.016-0.051 0.033-0.076 0.05-0.027 0.018-0.053 0.038-0.079 0.057-0.024 0.018-0.048 0.036-0.072 0.054-0.026 0.02-0.05 0.041-0.075 0.062-0.023 0.019-0.045 0.038-0.067 0.058-0.024 0.022-0.048 0.045-0.071 0.068-0.021 0.02-0.042 0.04-0.062 0.061-0.023 0.024-0.046 0.049-0.068 0.074-0.019 0.021-0.038 0.041-0.056 0.063-0.022 0.026-0.043 0.053-0.064 0.08-0.017 0.021-0.034 0.042-0.051 0.064C47.71 7.451 47.69 7.48 47.67 7.509c-0.015 0.022-0.03 0.043-0.044 0.064-0.021 0.032-0.04 0.065-0.06 0.098-0.012 0.02-0.024 0.039-0.035 0.059-0.027 0.048-0.052 0.096-0.075 0.145-0.008 0.017-0.016 0.033-0.024 0.05-0.02 0.044-0.041 0.089-0.059 0.135-0.009 0.024-0.018 0.048-0.026 0.072-0.012 0.034-0.025 0.067-0.036 0.101-0.009 0.027-0.016 0.055-0.024 0.082-0.009 0.032-0.019 0.063-0.027 0.095-0.007 0.029-0.014 0.058-0.02 0.088-0.007 0.031-0.014 0.062-0.02 0.093-0.006 0.03-0.01 0.061-0.015 0.091-0.005 0.031-0.01 0.062-0.014 0.093-0.004 0.031-0.006 0.062-0.009 0.093-0.003 0.031-0.006 0.062-0.007 0.093-0.002 0.031-0.002 0.063-0.003 0.095 0 0.02-0.002 0.04-0.002 0.061V16.3L24.72 4.927c-0.849-0.43-1.858-0.405-2.684 0.068L11.04 11.279c-0.012 0.007-0.024 0.015-0.036 0.022-0.014 0.008-0.028 0.015-0.041 0.024-0.016 0.01-0.031 0.021-0.046 0.03-0.025 0.016-0.049 0.032-0.073 0.048-0.028 0.019-0.054 0.038-0.081 0.058-0.024 0.018-0.048 0.035-0.071 0.054-0.026 0.02-0.05 0.041-0.075 0.062-0.023 0.019-0.045 0.038-0.068 0.058-0.024 0.022-0.047 0.044-0.07 0.066-0.021 0.021-0.043 0.041-0.064 0.063-0.022 0.023-0.044 0.047-0.065 0.071-0.02 0.022-0.04 0.043-0.059 0.066-0.021 0.025-0.041 0.05-0.061 0.075-0.018 0.023-0.037 0.045-0.054 0.068-0.02 0.027-0.038 0.054-0.057 0.081-0.016 0.023-0.033 0.046-0.048 0.069-0.019 0.03-0.037 0.06-0.055 0.09-0.013 0.022-0.027 0.044-0.04 0.066-0.023 0.041-0.044 0.083-0.065 0.125-0.014 0.027-0.027 0.055-0.039 0.083-0.018 0.04-0.037 0.08-0.053 0.121-0.01 0.025-0.018 0.049-0.027 0.074-0.012 0.033-0.025 0.065-0.036 0.099-0.009 0.027-0.016 0.054-0.024 0.082-0.009 0.032-0.019 0.063-0.027 0.096-0.007 0.028-0.013 0.057-0.02 0.086-0.007 0.032-0.015 0.063-0.021 0.095-0.006 0.029-0.01 0.059-0.014 0.089-0.005 0.032-0.01 0.063-0.014 0.095-0.004 0.03-0.006 0.061-0.009 0.091-0.003 0.032-0.006 0.064-0.008 0.096-0.002 0.031-0.002 0.062-0.003 0.093 0 0.021-0.002 0.041-0.002 0.062V79c0 1.067 0.6 2.043 1.552 2.526l26.559 13.459c0.403 0.204 0.842 0.306 1.28 0.306 0.515 0 1.029-0.14 1.482-0.419 0.006-0.004 0.012-0.008 0.018-0.012l3.311-1.894 13.396 6.789c0.403 0.204 0.842 0.306 1.28 0.306 0.515 0 1.029-0.14 1.483-0.419 0.007-0.004 0.013-0.009 0.02-0.013l10.9-6.236c0.882-0.504 1.425-1.442 1.425-2.458V64.395l2.961 1.5c0.403 0.204 0.842 0.306 1.28 0.306 0.515 0 1.029-0.14 1.482-0.419 0.007-0.004 0.014-0.01 0.021-0.014l10.899-6.235c0.881-0.504 1.425-1.442 1.425-2.458V16.287C90.387 16.275 90.386 16.264 90.386 16.252zM61.077 6.047l20.509 10.39-5.108 2.919L55.969 8.966 61.077 6.047zM36.172 87.85l-20.896-10.59V18.346l20.896 10.588V87.85zM38.922 23.977l-20.508-10.39 5.108-2.919 20.509 10.39L38.922 23.977zM47.169 84.522l-5.333 3.051V28.836l5.333-3.048v18.07V84.522zM55.659 92.619l-5.96-3.021 1.707-0.977c0.881-0.504 1.425-1.442 1.425-2.458V61.758l2.828 1.433V92.619zM58.409 58.234l-5.577-2.826v-5.507l10.685 5.413L58.409 58.234zM66.655 89.292l-5.333 3.051v-29.25l5.333-3.048V89.292zM72.317 55.131c0-0.013 0.001-0.025 0.001-0.038-0.001-0.02-0.003-0.041-0.004-0.061-0.001-0.031-0.003-0.062-0.006-0.093-0.003-0.032-0.006-0.065-0.01-0.098-0.003-0.03-0.007-0.06-0.011-0.09-0.005-0.033-0.01-0.065-0.016-0.097-0.006-0.029-0.011-0.059-0.018-0.088-0.007-0.032-0.014-0.064-0.022-0.095-0.008-0.029-0.015-0.058-0.024-0.087-0.009-0.031-0.018-0.062-0.028-0.093-0.009-0.029-0.019-0.057-0.029-0.085-0.011-0.03-0.022-0.06-0.034-0.089-0.011-0.028-0.023-0.057-0.035-0.084-0.012-0.029-0.025-0.057-0.038-0.085-0.014-0.028-0.028-0.056-0.042-0.084-0.014-0.027-0.028-0.054-0.043-0.08-0.016-0.028-0.032-0.056-0.049-0.083-0.015-0.025-0.03-0.05-0.046-0.075-0.018-0.028-0.037-0.055-0.056-0.082-0.017-0.023-0.033-0.047-0.05-0.07-0.02-0.027-0.041-0.054-0.063-0.08-0.018-0.022-0.035-0.044-0.053-0.065-0.022-0.026-0.046-0.052-0.069-0.077-0.019-0.02-0.037-0.041-0.057-0.061-0.024-0.025-0.05-0.049-0.075-0.073-0.02-0.019-0.04-0.038-0.06-0.057-0.026-0.023-0.052-0.045-0.079-0.068-0.022-0.018-0.043-0.036-0.065-0.054-0.027-0.021-0.055-0.041-0.083-0.062-0.023-0.017-0.046-0.034-0.07-0.051-0.028-0.019-0.057-0.037-0.086-0.056-0.025-0.016-0.049-0.032-0.075-0.047-0.005-0.003-0.01-0.006-0.014-0.009-0.027-0.015-0.054-0.029-0.081-0.043-0.02-0.011-0.04-0.023-0.061-0.034l-17.935-9.086V20.908v-7.183l20.896 10.588V58.76l-1.409-0.714v-2.882C72.319 55.153 72.317 55.142 72.317 55.131zM84.724 55.433l-5.333 3.051V24.215l5.333-3.048V55.433z" data-fill-palette-color="quaternary"></path></svg></g></svg></g></svg></g></svg></g></svg></g></svg><rect width="395.5199999999999" height="78.75900463318848" fill="none" stroke="none" visibility="hidden"></rect></g></svg></g></svg>